<svg width="25" height="20" viewBox="0 0 25 20" fill="none" xmlns="http://www.w3.org/2000/svg">
<path d="M9.08813 14.2057C8.61694 14.6769 8.61694 15.4406 9.08813 15.9117C9.55933 16.3829 10.323 16.3829 10.7942 15.9117L18.469 8.23694C19.4109 7.29504 20.9382 7.29504 21.8801 8.23694C22.822 9.17883 22.822 10.7062 21.8801 11.6481L14.3533 19.1744C15.2942 20.1163 16.8206 20.1173 17.7625 19.1764L17.7644 19.1744L23.5872 13.3522C25.4714 11.4679 25.4714 8.4137 23.5872 6.52991C21.7029 4.64563 18.6482 4.64563 16.7649 6.52991L9.08813 14.2057ZM21.0281 9.0885C20.5569 8.61731 19.7932 8.61731 19.3225 9.0885L11.6467 16.7633C10.7058 17.7052 9.17944 17.7062 8.23755 16.7657L8.23511 16.7633C7.7644 16.2926 7.00122 16.2921 6.53003 16.7628L6.52954 16.7633C6.05835 17.234 6.05786 17.9977 6.52856 18.4689L6.52954 18.4698C8.41333 20.3531 11.468 20.3531 13.3518 18.4698L21.0276 10.7941C21.4988 10.3229 21.4988 9.5592 21.0281 9.0885ZM8.2356 13.3527L15.9104 5.67786C16.3811 5.20667 16.3811 4.44299 15.9104 3.9718C15.4397 3.5011 14.6765 3.5011 14.2058 3.9718L6.52954 11.6466C5.58814 12.5885 4.06079 12.589 3.1189 11.6471L3.11841 11.6466C2.17651 10.7052 2.17554 9.17883 3.11694 8.23645L3.11841 8.23499L10.6462 0.707153C9.70483 -0.234741 8.17798 -0.235229 7.2356 0.706177L7.23462 0.707153L1.41284 6.52991C-0.470947 8.41418 -0.470947 11.4684 1.41284 13.3522C3.29761 15.2364 6.35083 15.2364 8.2356 13.3527ZM3.97144 10.7941C4.44214 11.2648 5.20532 11.2648 5.67603 10.7941L13.3523 3.11877C14.2937 2.17688 15.8206 2.17639 16.7625 3.1178L16.7634 3.11877C17.2346 3.58997 17.9983 3.58997 18.469 3.11877C18.9402 2.64758 18.9402 1.88391 18.469 1.41321C16.5847 -0.471069 13.531 -0.471069 11.6467 1.41321L3.97144 9.0885C3.50024 9.5592 3.50024 10.3229 3.97095 10.7941H3.97144Z" fill="#0F6FEC"/>
</svg>
