<svg width="25" height="25" viewBox="0 0 25 25" fill="none" xmlns="http://www.w3.org/2000/svg">
<path d="M12.1094 0C5.42158 0 0 5.42153 0 12.1094C0 18.7972 5.42158 24.2188 12.1094 24.2188C18.7972 24.2188 24.2188 18.7972 24.2188 12.1094C24.2188 5.42158 18.7972 0 12.1094 0ZM18.4623 5.75645C21.658 8.95215 21.8803 13.8366 19.4719 17.2622L6.95654 4.74688C10.3845 2.33691 15.2684 2.56255 18.4623 5.75645ZM5.75645 18.4623C2.56074 15.2666 2.33848 10.3822 4.74683 6.95659L17.2622 19.4719C13.8343 21.8818 8.95039 21.6563 5.75645 18.4623Z" fill="#0F6FEC"/>
</svg>
