<svg width="25" height="22" viewBox="0 0 25 22" fill="none" xmlns="http://www.w3.org/2000/svg">
<path d="M2.34375 7.62939e-06C1.0498 7.62939e-06 0 1.04981 0 2.34376V19.5313C0 20.8252 1.0498 21.875 2.34375 21.875H22.6562C23.9502 21.875 25 20.8252 25 19.5313V2.34376C25 1.04981 23.9502 7.62939e-06 22.6562 7.62939e-06H2.34375ZM2.34375 1.56251H7.51953C7.68066 1.56251 7.8125 1.69434 7.8125 1.85548V2.83204C7.8125 2.99317 7.68066 3.12501 7.51953 3.12501H1.85547C1.69434 3.12501 1.5625 2.99317 1.5625 2.83204V2.34376C1.5625 1.91407 1.91406 1.56251 2.34375 1.56251ZM23.1445 6.25001H1.85547C1.69434 6.25001 1.5625 6.11817 1.5625 5.95704V4.19923C1.5625 4.03809 1.69434 3.90626 1.85547 3.90626H8.59375L10.0684 1.69434C10.1221 1.61134 10.2148 1.56251 10.3125 1.56251H22.6562C23.0859 1.56251 23.4375 1.91407 23.4375 2.34376V5.95704C23.4375 6.11817 23.3057 6.25001 23.1445 6.25001ZM12.5 19.1406C9.26758 19.1406 6.64062 16.5137 6.64062 13.2813C6.64062 10.0488 9.26758 7.42188 12.5 7.42188C15.7324 7.42188 18.3594 10.0488 18.3594 13.2813C18.3594 16.5137 15.7324 19.1406 12.5 19.1406ZM12.5 8.98438C10.1318 8.98438 8.20312 10.9131 8.20312 13.2813C8.20312 15.6494 10.1318 17.5781 12.5 17.5781C14.8682 17.5781 16.7969 15.6494 16.7969 13.2813C16.7969 10.9131 14.8682 8.98438 12.5 8.98438ZM10.1562 14.0625C9.72656 14.0625 9.375 13.7109 9.375 13.2813C9.375 11.5576 10.7764 10.1563 12.5 10.1563C12.9297 10.1563 13.2812 10.5078 13.2812 10.9375C13.2812 11.3672 12.9297 11.7188 12.5 11.7188C11.6406 11.7188 10.9375 12.4219 10.9375 13.2813C10.9375 13.7109 10.5859 14.0625 10.1562 14.0625Z" fill="#4F9EF8"/>
</svg>
