<svg width="16" height="16" viewBox="0 0 16 16" fill="none" xmlns="http://www.w3.org/2000/svg">
<path d="M15.5594 4.43849L14.1187 5.87918C13.9718 6.02606 13.7343 6.02606 13.5874 5.87918L10.1185 2.41027C9.9716 2.26339 9.9716 2.02588 10.1185 1.87899L11.5592 0.438302C12.1436 -0.146101 13.0936 -0.146101 13.6811 0.438302L15.5594 2.31651C16.1469 2.90092 16.1469 3.85096 15.5594 4.43849ZM8.88092 3.11655L0.674291 11.3232L0.0117601 15.1202C-0.0788691 15.6328 0.368027 16.0765 0.88055 15.989L4.6776 15.3234L12.8842 7.11674C13.0311 6.96985 13.0311 6.73234 12.8842 6.58546L9.41532 3.11655C9.26531 2.96967 9.0278 2.96967 8.88092 3.11655ZM3.87756 10.62C3.70568 10.4481 3.70568 10.1731 3.87756 10.0012L8.69029 5.18852C8.86217 5.01664 9.13718 5.01664 9.30907 5.18852C9.48095 5.36041 9.48095 5.63542 9.30907 5.8073L4.49634 10.62C4.32446 10.7919 4.04945 10.7919 3.87756 10.62ZM2.74939 13.2483H4.24946V14.3827L2.23374 14.7358L1.26182 13.7639L1.61496 11.7482H2.74939V13.2483Z" fill="#0F6FEC"/>
</svg>
