<svg width="25" height="25" viewBox="0 0 25 25" fill="none" xmlns="http://www.w3.org/2000/svg">
<path d="M16.4799 9.09375L16.641 8.46892C16.7433 8.07214 16.9077 7.70315 17.0829 7.35507C17.1668 7.18839 17.2558 7.02153 17.343 6.85797L17.3548 6.83578C17.4468 6.66331 17.5371 6.49342 17.6243 6.31935C17.9699 5.62907 18.25 4.90179 18.25 3.97715C18.25 2.30216 17.7099 1.4747 17.1328 1.04451C16.5279 0.593593 15.7789 0.5 15.2344 0.5C15.1674 0.5 15.0767 0.528048 14.9525 0.658541C14.8239 0.793725 14.6957 1.00362 14.5746 1.27562C14.3332 1.81778 14.175 2.47572 14.0645 2.93563L14.0637 2.93877C14.0585 2.96041 14.0533 2.98215 14.0481 3.00399C13.8059 4.01314 13.5148 5.22646 12.6915 6.05127L12.6915 6.0513C11.9776 6.76646 11.4218 7.57651 10.8081 8.47107C10.7739 8.52092 10.7395 8.57103 10.7049 8.6214C10.0559 9.56634 9.34153 10.5847 8.33775 11.5766L16.4799 9.09375ZM16.4799 9.09375H17.1251M16.4799 9.09375H17.1251M17.1251 9.09375H22.0921C23.4436 9.09375 24.4936 10.2221 24.5 11.4329C24.5035 12.1852 24.1768 12.9974 23.6964 13.48L23.6919 13.4846L23.454 13.7224M17.1251 9.09375L23.454 13.7224M23.454 13.7224L23.5847 14.0323M23.454 13.7224L23.5847 14.0323M23.5847 14.0323C24.0036 15.0262 23.9296 16.4319 23.1907 17.4188L23.0335 17.6287M23.5847 14.0323L23.0335 17.6287M23.0335 17.6287L23.1168 17.8774M23.0335 17.6287L23.1168 17.8774M23.1168 17.8774C23.4788 18.9571 23.1042 20.3179 22.4297 21.0231L22.2403 21.2211M23.1168 17.8774L22.2403 21.2211M22.2403 21.2211L22.3053 21.4873M22.2403 21.2211L22.3053 21.4873M22.3053 21.4873C22.4898 22.2428 22.3895 22.8184 22.0804 23.2624M22.3053 21.4873L22.0804 23.2624M22.0804 23.2624C21.6956 23.8153 20.9909 24.1433 20.0325 24.3191M22.0804 23.2624L20.0325 24.3191M20.0325 24.3191C19.0817 24.4936 17.9882 24.5 16.9357 24.5M20.0325 24.3191L16.9357 24.5M16.9357 24.5C16.9356 24.5 16.9356 24.5 16.9355 24.5M16.9357 24.5H16.9355M16.9355 24.5L16.7968 24.5C14.5576 24.4992 12.7173 23.686 11.1619 22.994C10.7705 22.8199 10.3035 22.618 9.83172 22.4578C9.3661 22.2997 8.8605 22.1695 8.39703 22.161C8.35003 22.1602 8.3125 22.1217 8.3125 22.0751V11.6371C8.3125 11.6145 8.32162 11.5926 8.33767 11.5767L16.9355 24.5ZM1.17188 11.4375H5.07812C5.4492 11.4375 5.75 11.7383 5.75 12.1094V23.8281C5.75 24.1992 5.4492 24.5 5.07812 24.5H1.17188C0.800801 24.5 0.5 24.1992 0.5 23.8281V12.1094C0.5 11.7383 0.800801 11.4375 1.17188 11.4375ZM1.45312 21.875C1.45312 22.7984 2.20164 23.5469 3.125 23.5469C4.04836 23.5469 4.79688 22.7984 4.79688 21.875C4.79688 20.9516 4.04836 20.2031 3.125 20.2031C2.20164 20.2031 1.45312 20.9516 1.45312 21.875Z" stroke="#0F6FEC"/>
</svg>
