<svg width="26" height="26" viewBox="0 0 26 26" fill="none" xmlns="http://www.w3.org/2000/svg">
<path d="M8.07842 21.9375C7.98197 21.9375 7.8865 21.9182 7.79763 21.8808C7.70876 21.8433 7.62829 21.7884 7.56097 21.7194C7.49366 21.6503 7.44086 21.5685 7.40569 21.4787C7.37051 21.3888 7.35369 21.2929 7.35619 21.1965L7.42661 18.5073H5.61564C4.23547 18.5073 3.25 17.3698 3.25 15.9719V6.53358C3.25 5.17111 4.23547 4.0625 5.61564 4.0625H20.1096C21.4897 4.0625 22.7504 5.17075 22.7504 6.53358V15.9716C22.7504 17.3694 21.4901 18.5069 20.1096 18.5069H13.0953L8.49911 21.8021C8.37655 21.8902 8.22938 21.9376 8.07842 21.9375ZM5.61636 5.50694C5.02269 5.50694 4.69517 5.95797 4.69517 6.53358V15.9716C4.69517 16.5634 5.04256 17.0625 5.61636 17.0625H8.16869C8.26518 17.0624 8.36072 17.0816 8.44964 17.1191C8.53856 17.1565 8.61906 17.2114 8.68637 17.2806C8.75368 17.3497 8.80644 17.4316 8.84151 17.5215C8.87658 17.6114 8.89326 17.7074 8.89056 17.8039L8.83856 19.7817L12.4421 17.1983C12.5649 17.1102 12.7118 17.0629 12.8628 17.0629H20.1096C20.6834 17.0629 21.3059 16.5634 21.3059 15.9719V6.53358C21.3059 5.95797 20.7032 5.50694 20.1096 5.50694H5.61636Z" fill="white"/>
<path d="M10.3359 8.75695H7.44705C7.35128 8.75695 7.25943 8.71891 7.1917 8.65118C7.12398 8.58346 7.08594 8.49161 7.08594 8.39584C7.08594 8.30007 7.12398 8.20822 7.1917 8.1405C7.25943 8.07277 7.35128 8.03473 7.44705 8.03473H10.3359C10.4317 8.03473 10.5236 8.07277 10.5913 8.1405C10.659 8.20822 10.697 8.30007 10.697 8.39584C10.697 8.49161 10.659 8.58346 10.5913 8.65118C10.5236 8.71891 10.4317 8.75695 10.3359 8.75695ZM15.3915 8.75695H11.7804C11.6846 8.75695 11.5928 8.71891 11.525 8.65118C11.4573 8.58346 11.4193 8.49161 11.4193 8.39584C11.4193 8.30007 11.4573 8.20822 11.525 8.1405C11.5928 8.07277 11.6846 8.03473 11.7804 8.03473H15.3915C15.4873 8.03473 15.5791 8.07277 15.6468 8.1405C15.7146 8.20822 15.7526 8.30007 15.7526 8.39584C15.7526 8.49161 15.7146 8.58346 15.6468 8.65118C15.5791 8.71891 15.4873 8.75695 15.3915 8.75695ZM18.2804 8.75695H16.8359C16.7402 8.75695 16.6483 8.71891 16.5806 8.65118C16.5129 8.58346 16.4748 8.49161 16.4748 8.39584C16.4748 8.30007 16.5129 8.20822 16.5806 8.1405C16.6483 8.07277 16.7402 8.03473 16.8359 8.03473H18.2804C18.3762 8.03473 18.468 8.07277 18.5357 8.1405C18.6034 8.20822 18.6415 8.30007 18.6415 8.39584C18.6415 8.49161 18.6034 8.58346 18.5357 8.65118C18.468 8.71891 18.3762 8.75695 18.2804 8.75695ZM8.89149 10.5625H7.44705C7.35128 10.5625 7.25943 10.5245 7.1917 10.4567C7.12398 10.389 7.08594 10.2972 7.08594 10.2014C7.08594 10.1056 7.12398 10.0138 7.1917 9.94605C7.25943 9.87833 7.35128 9.84028 7.44705 9.84028H8.89149C8.98727 9.84028 9.07912 9.87833 9.14684 9.94605C9.21456 10.0138 9.2526 10.1056 9.2526 10.2014C9.2526 10.2972 9.21456 10.389 9.14684 10.4567C9.07912 10.5245 8.98727 10.5625 8.89149 10.5625ZM13.2248 10.5625H10.3359C10.2402 10.5625 10.1483 10.5245 10.0806 10.4567C10.0129 10.389 9.97483 10.2972 9.97483 10.2014C9.97483 10.1056 10.0129 10.0138 10.0806 9.94605C10.1483 9.87833 10.2402 9.84028 10.3359 9.84028H13.2248C13.3206 9.84028 13.4124 9.87833 13.4802 9.94605C13.5479 10.0138 13.5859 10.1056 13.5859 10.2014C13.5859 10.2972 13.5479 10.389 13.4802 10.4567C13.4124 10.5245 13.3206 10.5625 13.2248 10.5625ZM18.2804 10.5625H14.6693C14.5735 10.5625 14.4816 10.5245 14.4139 10.4567C14.3462 10.389 14.3082 10.2972 14.3082 10.2014C14.3082 10.1056 14.3462 10.0138 14.4139 9.94605C14.4816 9.87833 14.5735 9.84028 14.6693 9.84028H18.2804C18.3762 9.84028 18.468 9.87833 18.5357 9.94605C18.6034 10.0138 18.6415 10.1056 18.6415 10.2014C18.6415 10.2972 18.6034 10.389 18.5357 10.4567C18.468 10.5245 18.3762 10.5625 18.2804 10.5625ZM11.0582 12.7292H7.44705C7.35128 12.7292 7.25943 12.6911 7.1917 12.6234C7.12398 12.5557 7.08594 12.4638 7.08594 12.3681C7.08594 12.2723 7.12398 12.1804 7.1917 12.1127C7.25943 12.045 7.35128 12.007 7.44705 12.007H11.0582C11.1539 12.007 11.2458 12.045 11.3135 12.1127C11.3812 12.1804 11.4193 12.2723 11.4193 12.3681C11.4193 12.4638 11.3812 12.5557 11.3135 12.6234C11.2458 12.6911 11.1539 12.7292 11.0582 12.7292ZM16.1137 12.7292H12.5026C12.4068 12.7292 12.315 12.6911 12.2473 12.6234C12.1795 12.5557 12.1415 12.4638 12.1415 12.3681C12.1415 12.2723 12.1795 12.1804 12.2473 12.1127C12.315 12.045 12.4068 12.007 12.5026 12.007H16.1137C16.2095 12.007 16.3013 12.045 16.3691 12.1127C16.4368 12.1804 16.4748 12.2723 16.4748 12.3681C16.4748 12.4638 16.4368 12.5557 16.3691 12.6234C16.3013 12.6911 16.2095 12.7292 16.1137 12.7292ZM18.2804 12.7292H17.5582C17.4624 12.7292 17.3705 12.6911 17.3028 12.6234C17.2351 12.5557 17.197 12.4638 17.197 12.3681C17.197 12.2723 17.2351 12.1804 17.3028 12.1127C17.3705 12.045 17.4624 12.007 17.5582 12.007H18.2804C18.3762 12.007 18.468 12.045 18.5357 12.1127C18.6034 12.1804 18.6415 12.2723 18.6415 12.3681C18.6415 12.4638 18.6034 12.5557 18.5357 12.6234C18.468 12.6911 18.3762 12.7292 18.2804 12.7292ZM8.89149 14.5347H7.44705C7.35128 14.5347 7.25943 14.4967 7.1917 14.429C7.12398 14.3612 7.08594 14.2694 7.08594 14.1736C7.08594 14.0778 7.12398 13.986 7.1917 13.9183C7.25943 13.8506 7.35128 13.8125 7.44705 13.8125H8.89149C8.98727 13.8125 9.07912 13.8506 9.14684 13.9183C9.21456 13.986 9.2526 14.0778 9.2526 14.1736C9.2526 14.2694 9.21456 14.3612 9.14684 14.429C9.07912 14.4967 8.98727 14.5347 8.89149 14.5347ZM12.8637 14.5347H10.3359C10.2402 14.5347 10.1483 14.4967 10.0806 14.429C10.0129 14.3612 9.97483 14.2694 9.97483 14.1736C9.97483 14.0778 10.0129 13.986 10.0806 13.9183C10.1483 13.8506 10.2402 13.8125 10.3359 13.8125H12.8637C12.9595 13.8125 13.0513 13.8506 13.1191 13.9183C13.1868 13.986 13.2248 14.0778 13.2248 14.1736C13.2248 14.2694 13.1868 14.3612 13.1191 14.429C13.0513 14.4967 12.9595 14.5347 12.8637 14.5347Z" fill="white"/>
</svg>
