<svg width="18" height="18" viewBox="0 0 18 18" fill="none" xmlns="http://www.w3.org/2000/svg">
<path d="M16.7143 10.9286H10.9286L10.9286 16.7143C10.9286 17.4242 10.3528 18 9.64286 18H8.35714C7.64719 18 7.07143 17.4242 7.07143 16.7143L7.07143 10.9286L1.28571 10.9286C0.575759 10.9286 0 10.3528 0 9.64286L0 8.35714C0 7.64719 0.575759 7.07143 1.28571 7.07143L7.07143 7.07143L7.07143 1.28571C7.07143 0.575759 7.64719 2.38419e-07 8.35714 2.38419e-07H9.64286C10.3528 2.38419e-07 10.9286 0.575759 10.9286 1.28571V7.07143H16.7143C17.4242 7.07143 18 7.64719 18 8.35714V9.64286C18 10.3528 17.4242 10.9286 16.7143 10.9286Z" fill="#0F6FEC"/>
</svg>
