<svg width="26" height="26" viewBox="0 0 26 26" fill="none" xmlns="http://www.w3.org/2000/svg">
<path d="M24.8539 21.8636L19.9857 16.9954C19.766 16.7757 19.4681 16.6536 19.1556 16.6536H18.3597C19.7074 14.93 20.5082 12.762 20.5082 10.4036C20.5082 4.79326 15.9623 0.24736 10.3519 0.24736C4.74158 0.24736 0.195679 4.79326 0.195679 10.4036C0.195679 16.014 4.74158 20.5599 10.3519 20.5599C12.7103 20.5599 14.8783 19.7591 16.6019 18.4114V19.2073C16.6019 19.5198 16.724 19.8177 16.9437 20.0374L21.8119 24.9056C22.2709 25.3645 23.0131 25.3645 23.4672 24.9056L24.849 23.5237C25.308 23.0647 25.308 22.3226 24.8539 21.8636ZM10.3519 16.6536C6.89978 16.6536 4.10193 13.8606 4.10193 10.4036C4.10193 6.95146 6.8949 4.15361 10.3519 4.15361C13.8041 4.15361 16.6019 6.94658 16.6019 10.4036C16.6019 13.8558 13.809 16.6536 10.3519 16.6536Z" fill="white"/>
</svg>
