<svg width="25" height="20" viewBox="0 0 25 20" fill="none" xmlns="http://www.w3.org/2000/svg">
<path d="M24.7567 17.8945L15.2176 10.5195C16.9442 9.55859 18.1238 7.73828 18.1238 5.625C18.1238 2.51953 15.6043 0 12.4988 0C9.87776 0 7.69416 1.80078 7.06916 4.22656L1.77619 0.132813C1.50276 -0.078125 1.11213 -0.03125 0.897287 0.242187L0.131662 1.22656C-0.0792753 1.5 -0.0324003 1.89062 0.241037 2.10156L23.2254 19.8633C23.4988 20.0742 23.8895 20.0273 24.1043 19.7539L24.8699 18.7656C25.0809 18.5 25.0301 18.1055 24.7567 17.8945ZM7.74885 12.5C4.85041 12.5 2.49885 14.8516 2.49885 17.75V18.125C2.49885 19.1602 3.33869 20 4.37385 20H19.3035L9.60041 12.5H7.74885Z" fill="#0F6FEC"/>
</svg>
