<svg width="24" height="24" viewBox="0 0 24 24" fill="none" xmlns="http://www.w3.org/2000/svg">
<path d="M14.8471 6.80901C14.8471 6.98676 14.835 7.16452 14.8127 7.34026C14.8228 7.26956 14.8329 7.19684 14.841 7.12614C14.7925 7.47762 14.6996 7.81899 14.5643 8.14622C14.5905 8.08159 14.6188 8.01695 14.6451 7.95231C14.5097 8.27146 14.336 8.57042 14.1239 8.84513L14.2512 8.68152C14.0411 8.95219 13.7967 9.19661 13.526 9.40669L13.6896 9.27943C13.4149 9.4895 13.116 9.66524 12.7968 9.80058C12.8614 9.77432 12.9261 9.74604 12.9907 9.71978C12.6635 9.85512 12.3221 9.94804 11.9706 9.99652C12.0413 9.98642 12.1141 9.97632 12.1848 9.96824C11.8313 10.0147 11.4757 10.0147 11.1223 9.96824C11.193 9.97834 11.2657 9.98844 11.3364 9.99652C10.9849 9.94804 10.6435 9.85512 10.3163 9.71978C10.3809 9.74604 10.4456 9.77432 10.5102 9.80058C10.191 9.66524 9.89209 9.49152 9.61738 9.27943L9.78099 9.40669C9.51032 9.19661 9.2659 8.95219 9.05582 8.68152L9.18308 8.84513C8.97301 8.57042 8.79727 8.27146 8.66193 7.95231C8.68819 8.01695 8.71647 8.08159 8.74273 8.14622C8.60739 7.81899 8.51447 7.47762 8.46599 7.12614C8.47609 7.19684 8.48619 7.26956 8.49427 7.34026C8.44781 6.98676 8.44781 6.63125 8.49427 6.27775C8.48417 6.34845 8.47407 6.42117 8.46599 6.49187C8.51447 6.1404 8.60739 5.79902 8.74273 5.47179C8.71647 5.53642 8.68819 5.60106 8.66193 5.6657C8.79727 5.34655 8.97099 5.04759 9.18308 4.77288L9.05582 4.93649C9.2659 4.66582 9.51032 4.4214 9.78099 4.21133L9.61738 4.33858C9.89209 4.12851 10.191 3.95277 10.5102 3.81743C10.4456 3.84369 10.3809 3.87197 10.3163 3.89823C10.6435 3.76289 10.9849 3.66997 11.3364 3.62149C11.2657 3.63159 11.193 3.64169 11.1223 3.64977C11.4757 3.60331 11.8313 3.60331 12.1848 3.64977C12.1141 3.63967 12.0413 3.62957 11.9706 3.62149C12.3221 3.66997 12.6635 3.76289 12.9907 3.89823C12.9261 3.87197 12.8614 3.84369 12.7968 3.81743C13.116 3.95277 13.4149 4.12649 13.6896 4.33858L13.526 4.21133C13.7967 4.4214 14.0411 4.66582 14.2512 4.93649L14.1239 4.77288C14.334 5.04759 14.5097 5.34655 14.6451 5.6657C14.6188 5.60106 14.5905 5.53642 14.5643 5.47179C14.6996 5.79902 14.7925 6.1404 14.841 6.49187C14.8309 6.42117 14.8208 6.34845 14.8127 6.27775C14.835 6.45349 14.8451 6.63125 14.8471 6.80901C14.8491 7.23118 15.2167 7.63719 15.6551 7.61699C16.0914 7.59679 16.4651 7.26148 16.463 6.80901C16.459 5.84144 16.1681 4.85166 15.5985 4.06387C15.445 3.85177 15.2814 3.64371 15.0996 3.45586C14.9158 3.26598 14.7138 3.10236 14.5037 2.94278C14.1219 2.65191 13.6957 2.43779 13.2432 2.27216C11.4192 1.60355 9.21944 2.19944 7.98524 3.70229C7.81556 3.90833 7.65397 4.12245 7.51661 4.35272C7.37925 4.58098 7.27219 4.82338 7.17321 5.06981C6.98738 5.52633 6.89244 6.01112 6.85406 6.50197C6.77932 7.46348 7.0298 8.4674 7.53075 9.29155C8.01352 10.0874 8.74273 10.7702 9.59516 11.156C9.84563 11.2691 10.1022 11.3741 10.3688 11.4489C10.6334 11.5216 10.9021 11.562 11.1748 11.5943C11.6717 11.6529 12.1787 11.6125 12.6695 11.5135C14.534 11.1338 16.0954 9.52788 16.3843 7.64325C16.4267 7.36854 16.459 7.09382 16.459 6.81507C16.461 6.39289 16.0853 5.98688 15.651 6.00708C15.2147 6.02122 14.8471 6.35653 14.8471 6.80901ZM17.5276 19.4399H7.16311C6.70458 19.4399 6.24605 19.4439 5.78751 19.4399C5.73702 19.4399 5.68652 19.4358 5.63804 19.4298C5.70874 19.4399 5.78145 19.45 5.85215 19.4581C5.77135 19.4459 5.6946 19.4237 5.61986 19.3934C5.6845 19.4197 5.74913 19.448 5.81377 19.4742C5.73298 19.4399 5.65824 19.3954 5.58754 19.3409L5.75116 19.4682C5.69056 19.4177 5.634 19.3631 5.58552 19.3025L5.71278 19.4661C5.65824 19.3954 5.61582 19.3207 5.57946 19.2399C5.60572 19.3045 5.634 19.3692 5.66026 19.4338C5.62996 19.3591 5.60976 19.2803 5.59562 19.2015C5.60572 19.2722 5.61582 19.3449 5.6239 19.4156C5.59158 19.1712 5.6138 18.9127 5.6138 18.6662V17.8017C5.6138 17.5855 5.62592 17.3714 5.6542 17.1573C5.6441 17.228 5.634 17.3007 5.62592 17.3714C5.68248 16.9573 5.79155 16.5513 5.95517 16.1655C5.92891 16.2301 5.90063 16.2948 5.87437 16.3594C6.03193 15.9918 6.23393 15.6464 6.47834 15.3292L6.35109 15.4929C6.5955 15.1798 6.87628 14.897 7.19139 14.6525L7.02778 14.7798C7.34491 14.5354 7.69033 14.3334 8.05796 14.1758C7.99332 14.2021 7.92868 14.2304 7.86404 14.2566C8.24986 14.095 8.65385 13.9839 9.06996 13.9274C8.99927 13.9375 8.92655 13.9476 8.85585 13.9557C9.1548 13.9173 9.45174 13.9153 9.75271 13.9153H13.4493C13.7826 13.9153 14.1138 13.9132 14.4471 13.9557C14.3764 13.9456 14.3037 13.9355 14.233 13.9274C14.6471 13.9839 15.0531 14.093 15.4389 14.2566C15.3743 14.2304 15.3096 14.2021 15.245 14.1758C15.6126 14.3334 15.9581 14.5354 16.2752 14.7798L16.1116 14.6525C16.4247 14.897 16.7075 15.1777 16.9519 15.4929L16.8246 15.3292C17.069 15.6464 17.271 15.9918 17.4286 16.3594C17.4023 16.2948 17.3741 16.2301 17.3478 16.1655C17.5094 16.5513 17.6205 16.9553 17.6771 17.3714C17.667 17.3007 17.6569 17.228 17.6488 17.1573C17.6872 17.4623 17.6892 17.7653 17.6892 18.0724V19.0722C17.6892 19.1874 17.6932 19.3025 17.6791 19.4156C17.6892 19.3449 17.6993 19.2722 17.7074 19.2015C17.6952 19.2823 17.673 19.3591 17.6427 19.4338C17.669 19.3692 17.6973 19.3045 17.7235 19.2399C17.6892 19.3207 17.6447 19.3954 17.5902 19.4661L17.7175 19.3025C17.667 19.3631 17.6124 19.4197 17.5518 19.4682L17.7154 19.3409C17.6447 19.3954 17.57 19.4379 17.4892 19.4742C17.5538 19.448 17.6185 19.4197 17.6831 19.3934C17.6084 19.4237 17.5296 19.4439 17.4508 19.4581C17.5215 19.448 17.5942 19.4379 17.6649 19.4298C17.6205 19.4358 17.574 19.4379 17.5276 19.4399C17.3195 19.4419 17.1054 19.5288 16.9559 19.6762C16.8165 19.8156 16.7095 20.0459 16.7196 20.2479C16.7398 20.6801 17.0751 21.0619 17.5276 21.0558C18.3133 21.0437 19.0042 20.5307 19.2344 19.7772C19.3253 19.4783 19.3051 19.1571 19.3051 18.85C19.3051 18.1471 19.3274 17.4502 19.2062 16.7533C19.0284 15.7332 18.5153 14.7737 17.8124 14.0203C17.1094 13.2668 16.1641 12.7134 15.1642 12.4669C14.5905 12.3255 14.0128 12.3033 13.427 12.3033H9.84361C9.24368 12.3033 8.64779 12.3316 8.06402 12.4871C7.07221 12.7497 6.13899 13.3093 5.45018 14.0688C4.75531 14.8343 4.25234 15.7958 4.08872 16.822C3.97964 17.5108 4.00186 18.2016 4.00186 18.8965C4.00186 19.2157 3.98368 19.5489 4.09882 19.854C4.2483 20.2458 4.48665 20.5549 4.83611 20.7872C5.1088 20.967 5.45422 21.0538 5.77741 21.0579C5.93497 21.0599 6.09253 21.0579 6.25009 21.0579H17.5296C17.9518 21.0579 18.3578 20.6862 18.3376 20.2499C18.3174 19.8095 17.9821 19.4399 17.5276 19.4399Z" fill="#0F6FEC"/>
</svg>
