<svg width="26" height="26" viewBox="0 0 26 26" fill="none" xmlns="http://www.w3.org/2000/svg">
<circle cx="13" cy="9.34375" r="3.96094" stroke="white" stroke-width="1.32031"/>
<path fill-rule="evenodd" clip-rule="evenodd" d="M10.0547 14.168C6.46484 14.168 3.55469 17.0781 3.55469 20.668C3.55469 21.4252 4.16855 22.0391 4.92578 22.0391H16.8086V20.7188H4.92578C4.89774 20.7188 4.875 20.696 4.875 20.668C4.875 17.8073 7.19403 15.4883 10.0547 15.4883H18.5098C19.4549 15.4883 20.2829 15.9896 20.7424 16.7408C21.082 16.6526 21.4403 16.6055 21.8105 16.6055C21.9269 16.6055 22.042 16.6101 22.1558 16.6193C21.5699 15.1814 20.1582 14.168 18.5098 14.168H10.0547Z" fill="white"/>
<path d="M20.5704 16C20.3409 15.9991 20.1117 16.0161 19.8848 16.0508C18.7938 16.2164 17.7995 16.7712 17.0856 17.6126C16.3716 18.4541 15.9861 19.5254 16.0004 20.6288C16.0146 21.7323 16.4276 22.7933 17.163 23.6161C17.8984 24.4388 18.9067 24.9677 20.0016 25.1051C20.1902 25.1296 20.3802 25.1415 20.5704 25.1407C21.7825 25.1407 22.945 24.6591 23.8021 23.802C24.6592 22.9449 25.1407 21.7825 25.1407 20.5704C25.1407 19.3582 24.6592 18.1958 23.8021 17.3387C22.945 16.4816 21.7825 16 20.5704 16ZM20.5704 24.125C20.4211 24.1242 20.272 24.1157 20.1235 24.0996C19.2648 23.9901 18.4755 23.5713 17.9034 22.9216C17.3313 22.272 17.0157 21.436 17.0157 20.5704C17.0157 18.8286 18.3157 17.3153 20.0321 17.0563C20.2103 17.0299 20.3902 17.0164 20.5704 17.0157C21.5132 17.0157 22.4173 17.3902 23.0839 18.0568C23.7506 18.7234 24.1251 19.6276 24.1251 20.5704C24.1251 21.5131 23.7506 22.4173 23.0839 23.0839C22.4173 23.7505 21.5132 24.125 20.5704 24.125Z" fill="white"/>
<path d="M22.3985 19.1485C22.3516 19.1014 22.2958 19.0641 22.2343 19.0386C22.1729 19.0131 22.107 19 22.0405 19C21.974 19 21.9082 19.0131 21.8467 19.0386C21.7853 19.0641 21.7295 19.1014 21.6825 19.1485L20.7735 20.0524L19.8747 19.1536C19.7798 19.0587 19.651 19.0053 19.5167 19.0053C19.3824 19.0053 19.2536 19.0587 19.1587 19.1536C19.0637 19.2486 19.0104 19.3773 19.0104 19.5116C19.0104 19.6459 19.0637 19.7747 19.1587 19.8696L20.0575 20.7684L19.1485 21.6774C19.1014 21.7244 19.0641 21.7802 19.0386 21.8416C19.0131 21.9031 19 21.9689 19 22.0354C19 22.102 19.0131 22.1678 19.0386 22.2292C19.0641 22.2907 19.1014 22.3465 19.1485 22.3934C19.1957 22.4409 19.2519 22.4784 19.3138 22.5037C19.3758 22.529 19.4422 22.5416 19.5091 22.5407C19.6438 22.5402 19.773 22.4874 19.8696 22.3934L20.7735 21.4895L21.6724 22.3884C21.7195 22.4359 21.7757 22.4734 21.8377 22.4987C21.8996 22.524 21.966 22.5365 22.0329 22.5356C22.1676 22.5351 22.2969 22.4823 22.3934 22.3884C22.4405 22.3414 22.4779 22.2856 22.5034 22.2242C22.5289 22.1627 22.542 22.0969 22.542 22.0304C22.542 21.9639 22.5289 21.898 22.5034 21.8366C22.4779 21.7751 22.4405 21.7193 22.3934 21.6724L21.4946 20.7735L22.3985 19.8645C22.4456 19.8176 22.483 19.7618 22.5085 19.7003C22.5339 19.6389 22.5471 19.573 22.5471 19.5065C22.5471 19.44 22.5339 19.3742 22.5085 19.3127C22.483 19.2513 22.4456 19.1955 22.3985 19.1485Z" fill="white"/>
</svg>
